<svg preserveAspectRatio="none" width="100%" height="100%" overflow="visible" style="display: block;" viewBox="0 0 94 23.4889" fill="none" xmlns="http://www.w3.org/2000/svg">
<path id="milx" fill-rule="evenodd" clip-rule="evenodd" d="M42.1768 6.6793C43.9659 6.6793 45.4162 5.18409 45.4162 3.33965C45.4162 1.49521 43.9659 0 42.1768 0C40.3877 0 38.9374 1.49521 38.9374 3.33965C38.9374 5.18409 40.3877 6.6793 42.1768 6.6793ZM7.79323 7.84833C6.15394 7.84833 4.82504 9.17723 4.82504 10.8165V20.8211C4.82504 22.1535 3.74491 23.2336 2.41252 23.2336C1.08012 23.2336 0 22.1535 0 20.8211V10.8165C0 6.51243 3.48915 3.02329 7.79323 3.02329C12.0973 3.02329 15.5865 6.51244 15.5865 10.8165V15.9876C15.5865 17.3247 16.6704 18.4086 18.0075 18.4086C19.3445 18.4086 20.4285 17.3247 20.4285 15.9876V10.4517C20.4285 6.34911 23.7543 3.02329 27.8569 3.02329C31.9595 3.02329 35.2853 6.34912 35.2853 10.4517V20.8211C35.2853 22.1535 34.2052 23.2336 32.8728 23.2336C31.5404 23.2336 30.4603 22.1535 30.4603 20.8211V10.4517C30.4603 9.01391 29.2947 7.84833 27.8569 7.84833C26.4191 7.84833 25.2535 9.01391 25.2535 10.4517V15.9876C25.2535 19.9895 22.0093 23.2336 18.0075 23.2336C14.0056 23.2336 10.7614 19.9895 10.7614 15.9876V10.8165C10.7614 9.17723 9.43251 7.84833 7.79323 7.84833ZM51.4669 3.21891C52.7993 3.21371 53.8834 4.2896 53.8883 5.62199L53.9015 9.2174C53.9205 14.3863 58.1149 18.5662 63.2839 18.5672L65.1632 18.5676C66.4956 18.5678 67.5752 19.6481 67.5747 20.9805C67.5741 22.3129 66.4935 23.3929 65.1611 23.3926L63.2818 23.3922C55.4558 23.3907 49.1053 17.0622 49.0765 9.23624L49.0633 5.64083C49.0584 4.30844 50.1346 3.22411 51.4669 3.21891ZM44.7093 11.8749C44.7093 10.5425 43.6292 9.4624 42.2968 9.4624C40.9644 9.4624 39.8843 10.5425 39.8843 11.8749V20.2859C39.8843 21.6183 40.9644 22.6984 42.2968 22.6984C43.6292 22.6984 44.7093 21.6183 44.7093 20.2859V11.8749ZM71.8195 4.11477C72.6871 3.10359 74.2102 2.98721 75.2214 3.85485L82.5542 10.1467L89.887 3.85485C90.8982 2.98721 92.4212 3.10359 93.2889 4.11477C94.1565 5.12596 94.0401 6.64904 93.029 7.51667L86.259 13.3255L93.1584 19.2455C94.1696 20.1131 94.286 21.6362 93.4183 22.6474C92.5507 23.6586 91.0276 23.7749 90.0164 22.9073L82.5542 16.5044L75.0919 22.9073C74.0807 23.7749 72.5576 23.6586 71.69 22.6474C70.8224 21.6362 70.9387 20.1131 71.9499 19.2455L78.8493 13.3255L72.0794 7.51667C71.0682 6.64904 70.9518 5.12596 71.8195 4.11477Z" fill="var(--fill-0, #1D1D1F)"/>
</svg>
