<svg preserveAspectRatio="none" width="100%" height="100%" overflow="visible" style="display: block;" viewBox="0 0 9.58301 2.08301" fill="none" xmlns="http://www.w3.org/2000/svg">
<path id="Union" d="M1.04199 0C1.61714 0.000175916 2.08301 0.466804 2.08301 1.04199C2.08283 1.61703 1.61703 2.08283 1.04199 2.08301C0.466804 2.08301 0.000175916 1.61714 0 1.04199C0 0.466695 0.466695 0 1.04199 0ZM4.79199 0C5.36714 0.000175916 5.83301 0.466804 5.83301 1.04199C5.83283 1.61703 5.36703 2.08283 4.79199 2.08301C4.2168 2.08301 3.75018 1.61714 3.75 1.04199C3.75 0.466695 4.2167 0 4.79199 0ZM8.54199 0C9.11714 0.000175916 9.58301 0.466804 9.58301 1.04199C9.58283 1.61703 9.11703 2.08283 8.54199 2.08301C7.9668 2.08301 7.50018 1.61714 7.5 1.04199C7.5 0.466695 7.9667 0 8.54199 0Z" fill="var(--fill-0, #71778A)"/>
</svg>
