<svg preserveAspectRatio="none" width="100%" height="100%" overflow="visible" style="display: block;" viewBox="0 0 82.0907 20.513" fill="none" xmlns="http://www.w3.org/2000/svg">
<path id="Union" fill-rule="evenodd" clip-rule="evenodd" d="M36.8334 5.83305C38.3958 5.83305 39.6624 4.52728 39.6624 2.91652C39.6624 1.30577 38.3958 0 36.8334 0C35.271 0 34.0044 1.30577 34.0044 2.91652C34.0044 4.52728 35.271 5.83305 36.8334 5.83305ZM4.21371 9.44606C4.21371 8.01447 5.37424 6.85394 6.80584 6.85394C8.23743 6.85394 9.39796 8.01447 9.39796 9.44606V13.962C9.39796 17.4568 12.2311 20.29 15.7259 20.29C19.2208 20.29 22.0539 17.4568 22.0539 13.962V9.12748C22.0539 7.87184 23.0718 6.85394 24.3275 6.85394C25.5831 6.85394 26.601 7.87184 26.601 9.12749V18.1831C26.601 19.3467 27.5443 20.29 28.7079 20.29C29.8715 20.29 30.8147 19.3467 30.8147 18.1831V9.12749C30.8147 5.54467 27.9103 2.64022 24.3275 2.64022C20.7447 2.64022 17.8402 5.54466 17.8402 9.12748V13.962C17.8402 15.1297 16.8936 16.0762 15.7259 16.0762C14.5583 16.0762 13.6117 15.1297 13.6117 13.962V9.44606C13.6117 5.6873 10.5646 2.64022 6.80584 2.64022C3.04708 2.64022 0 5.6873 0 9.44606V18.1831C0 19.3467 0.943272 20.29 2.10686 20.29C3.27044 20.29 4.21371 19.3467 4.21371 18.1831V9.44606ZM47.062 4.9099C47.0577 3.74632 46.111 2.80674 44.9474 2.81128C43.7838 2.81583 42.844 3.76278 42.8483 4.92635L42.8598 8.06623C42.8849 14.9007 48.4308 20.4273 55.2653 20.4287L56.9065 20.429C58.0701 20.4292 59.0138 19.4861 59.0143 18.3226C59.0148 17.159 58.0719 16.2155 56.9083 16.2153L55.2671 16.215C50.7531 16.2141 47.0901 12.5638 47.0735 8.04977L47.062 4.9099ZM36.9386 8.26322C38.1022 8.26322 39.0454 9.20649 39.0454 10.3701V17.7154C39.0454 18.879 38.1022 19.8223 36.9386 19.8223C35.775 19.8223 34.8317 18.879 34.8317 17.7154V10.3701C34.8317 9.20649 35.775 8.26322 36.9386 8.26322ZM65.6913 3.36653C64.8082 2.60882 63.4781 2.71045 62.7204 3.59352C61.9627 4.47659 62.0643 5.8067 62.9474 6.56441L68.8596 11.6373L62.8343 16.8072C61.9512 17.5649 61.8496 18.895 62.6073 19.7781C63.365 20.6611 64.6951 20.7628 65.5782 20.0051L72.095 14.4134L78.6118 20.0051C79.4949 20.7628 80.825 20.6611 81.5827 19.7781C82.3404 18.895 82.2388 17.5649 81.3557 16.8072L75.3305 11.6373L81.2427 6.56441C82.1257 5.8067 82.2274 4.47659 81.4697 3.59352C80.712 2.71045 79.3818 2.60882 78.4988 3.36653L72.095 8.86118L65.6913 3.36653Z" fill="var(--fill-0, #181818)"/>
</svg>
