<svg preserveAspectRatio="none" width="100%" height="100%" overflow="visible" style="display: block;" viewBox="0 0 9 11" fill="none" xmlns="http://www.w3.org/2000/svg">
<path id="Vector" d="M5.1667 0.265784C4.98989 0.0955939 4.75021 0 4.50032 0C4.25042 0 4.01074 0.0955939 3.83393 0.265784L0.276288 3.69259C0.0993838 3.86308 -2.63608e-09 4.09431 0 4.33542C2.63608e-09 4.57653 0.0993838 4.80776 0.276288 4.97825C0.453192 5.14874 0.693125 5.24452 0.943306 5.24452C1.19349 5.24452 1.43342 5.14874 1.61032 4.97825L3.55731 3.10247V10.0912C3.55731 10.3322 3.65666 10.5634 3.83351 10.7338C4.01036 10.9043 4.25021 11 4.50032 11C4.75042 11 4.99027 10.9043 5.16712 10.7338C5.34397 10.5634 5.44332 10.3322 5.44332 10.0912V3.10247L7.38968 4.97825C7.47727 5.06267 7.58126 5.12963 7.69571 5.17532C7.81016 5.221 7.93282 5.24452 8.0567 5.24452C8.18057 5.24452 8.30324 5.221 8.41768 5.17532C8.53213 5.12963 8.63612 5.06267 8.72371 4.97825C8.81131 4.89383 8.88079 4.79361 8.9282 4.68332C8.9756 4.57302 9 4.4548 9 4.33542C9 4.21603 8.9756 4.09782 8.9282 3.98752C8.88079 3.87723 8.81131 3.77701 8.72371 3.69259L5.1667 0.265784Z" fill="var(--fill-0, #F4F4F4)"/>
</svg>
