<svg preserveAspectRatio="none" width="100%" height="100%" overflow="visible" style="display: block;" viewBox="0 0 76.0657 75.9698" fill="none" xmlns="http://www.w3.org/2000/svg">
<path id="availeble" d="M36.8442 4.10864C36.763 1.79952 38.5742 -0.162185 40.8782 0.0106133C49.3738 0.647753 57.4558 4.12567 63.7846 9.9487C71.1448 16.7208 75.5412 26.1196 76.0217 36.1097C76.5023 46.0999 73.0282 55.8772 66.3519 63.3244C59.6756 70.7716 50.3345 75.2893 40.3514 75.899C30.3683 76.5087 20.5469 73.1615 13.0139 66.5821C5.48091 60.0027 0.842817 50.7208 0.10399 40.7464C-0.634837 30.7721 2.58508 20.9081 9.06645 13.2906C14.6395 6.7407 22.2382 2.30507 30.5931 0.638783C32.859 0.186871 34.8954 1.91359 35.0959 4.21541V4.21541C35.2964 6.51724 33.581 8.51635 31.3302 9.03837C25.1686 10.4674 19.5852 13.84 15.4391 18.7128C10.3836 24.6544 7.87206 32.3483 8.44834 40.1283C9.02463 47.9083 12.6423 55.1482 18.5181 60.2801C24.3938 65.4121 32.0545 68.0229 39.8413 67.5473C47.6282 67.0718 54.9142 63.548 60.1217 57.7392C65.3292 51.9303 68.039 44.304 67.6642 36.5117C67.2894 28.7194 63.8602 21.3883 58.1192 16.1061C53.4109 11.7741 47.4586 9.10603 41.1688 8.43747C38.8712 8.19325 36.9253 6.41776 36.8442 4.10864V4.10864Z" fill="var(--fill-0, #B2F86C)"/>
</svg>
