<svg preserveAspectRatio="none" width="100%" height="100%" overflow="visible" style="display: block;" viewBox="0 0 36 36" fill="none" xmlns="http://www.w3.org/2000/svg">
<g id="Group">
<path id="background" d="M0 12C0 5.37258 5.37258 0 12 0H24C30.6274 0 36 5.37258 36 12V24C36 30.6274 30.6274 36 24 36H12C5.37258 36 0 30.6274 0 24V12Z" fill="url(#paint0_linear_0_270)"/>
<path id="Vector" d="M22.0614 16.6435C22.7467 17.0429 22.7467 18.0416 22.0614 18.441L10.1175 25.4017C9.43208 25.8012 8.57538 25.3018 8.57538 24.5029V10.5816C8.57538 9.78273 9.43208 9.28345 10.1175 9.68288L22.0614 16.6435Z" fill="url(#paint1_linear_0_270)"/>
<path id="Vector_2" d="M29.0839 8.66713C29.7392 9.05608 29.7392 10.0285 29.0839 10.4175L24.0498 13.4054C23.3945 13.7944 22.5754 13.3081 22.5754 12.5302V6.55436C22.5754 5.77644 23.3945 5.29023 24.0498 5.67919L29.0839 8.66713Z" fill="url(#paint2_linear_0_270)"/>
<path id="Vector_3" d="M25.0751 25.7571C25.7421 26.1061 25.7421 26.9785 25.0751 27.3275L21.0762 29.4195C20.4092 29.7684 19.5754 29.3323 19.5754 28.6343V24.4503C19.5754 23.7523 20.4092 23.3162 21.0762 23.6651L25.0751 25.7571Z" fill="url(#paint3_linear_0_270)"/>
</g>
<defs>
<linearGradient id="paint0_linear_0_270" x1="2.72194" y1="35.1219" x2="36.9454" y2="-12.761" gradientUnits="userSpaceOnUse">
<stop stop-color="#8722B7"/>
<stop offset="0.933254" stop-color="#2E2054"/>
</linearGradient>
<linearGradient id="paint1_linear_0_270" x1="33.1085" y1="-1.04139" x2="-3.82239" y2="49.9739" gradientUnits="userSpaceOnUse">
<stop stop-color="#0BFFF0"/>
<stop offset="0.292052" stop-color="#FF540B"/>
<stop offset="0.514651" stop-color="#FFE600"/>
<stop offset="0.666667" stop-color="white"/>
<stop offset="1" stop-color="white"/>
</linearGradient>
<linearGradient id="paint2_linear_0_270" x1="33.8335" y1="1.71414" x2="19.5341" y2="15.4599" gradientUnits="userSpaceOnUse">
<stop stop-color="#0BC4FF"/>
<stop offset="0.418963" stop-color="#B10BFF"/>
<stop offset="1" stop-color="#FF6B00"/>
</linearGradient>
<linearGradient id="paint3_linear_0_270" x1="26.5758" y1="22.3134" x2="13.399" y2="39.306" gradientUnits="userSpaceOnUse">
<stop stop-color="#0BFFF0"/>
<stop offset="0.743732" stop-color="#FFC90B"/>
<stop offset="1" stop-color="white"/>
</linearGradient>
</defs>
</svg>
