<svg preserveAspectRatio="none" width="100%" height="100%" overflow="visible" style="display: block;" viewBox="0 0 87.2955 115.854" fill="none" xmlns="http://www.w3.org/2000/svg">
<path id="availeble" d="M27.4828 6.26553C27.359 2.74412 30.1207 -0.247398 33.6344 0.0161946C40.5667 0.536249 47.3671 2.29984 53.7047 5.24007C61.9768 9.07777 69.2275 14.8119 74.8681 21.977C80.5088 29.1421 84.3805 37.5363 86.169 46.4782C87.9575 55.42 87.6124 64.6576 85.1617 73.4411C82.711 82.2246 78.2237 90.3065 72.0641 97.0308C65.9046 103.755 58.2463 108.932 49.7108 112.142C41.1754 115.352 32.0034 116.504 22.9394 115.504C15.995 114.739 9.26395 112.727 3.06375 109.583C-0.0788631 107.989 -0.892776 104 1.0362 101.051V101.051C2.96518 98.1027 6.9057 97.3223 10.0962 98.8176C14.5786 100.918 19.3887 102.276 24.3377 102.821C31.4077 103.601 38.5619 102.702 45.2195 100.199C51.8771 97.6949 57.8506 93.6567 62.655 88.4118C67.4595 83.1669 70.9596 76.863 72.8711 70.0119C74.7827 63.1608 75.0519 55.9554 73.6569 48.9808C72.2618 42.0061 69.2419 35.4587 64.8422 29.8699C60.4424 24.2811 54.7869 19.8085 48.3347 16.8151C43.818 14.7197 39.0001 13.3904 34.0776 12.8671C30.5738 12.4947 27.6065 9.78693 27.4828 6.26553V6.26553Z" fill="var(--fill-0, #B2F86C)"/>
</svg>
