<svg preserveAspectRatio="none" width="100%" height="100%" overflow="visible" style="display: block;" viewBox="0 0 16.6667 20" fill="none" xmlns="http://www.w3.org/2000/svg">
<g id="Vector">
<path d="M8.33096 16.4284C6.09569 16.4284 3.86012 16.4357 1.62456 16.4243C0.940763 16.4208 0.419546 16.0907 0.137931 15.4318C-0.102584 14.8694 -0.0240361 14.3272 0.338258 13.8389C0.598866 13.4873 0.889006 13.1604 1.14139 12.8012C1.5521 12.2167 1.79535 11.5622 1.92078 10.8562C2.00543 10.3602 2.05781 9.85883 2.07758 9.35553C2.09797 8.91369 2.09676 8.46838 2.10589 8.02465C2.12476 7.10057 2.25507 6.19701 2.58814 5.33259C3.01041 4.23746 3.71216 3.3866 4.67148 2.75951C4.98421 2.55482 5.31367 2.37899 5.65607 2.23404C5.69114 2.22129 5.72273 2.19994 5.74812 2.1718C5.77351 2.14366 5.79196 2.10958 5.8019 2.07245C6.01166 1.41537 6.37365 0.869703 6.92471 0.470471C7.39021 0.133411 7.9093 -0.0303847 8.4774 0.00464679C9.0455 0.0396783 9.54662 0.265331 9.97803 0.651309C10.4195 1.04612 10.7121 1.54193 10.8914 2.11285C10.8974 2.1366 10.9088 2.15849 10.9247 2.17668C10.9406 2.19487 10.9605 2.20881 10.9827 2.21731C11.5182 2.4477 12.0245 2.73205 12.4815 3.10509C13.1152 3.61799 13.6216 4.28026 13.9587 5.03687C14.2048 5.59593 14.376 6.18727 14.4674 6.79444C14.5655 7.41049 14.5752 8.0319 14.5789 8.6549C14.5798 9.33735 14.6295 10.0188 14.7274 10.6937C14.8687 11.6379 15.2313 12.4749 15.8323 13.2011C16.0006 13.4043 16.1632 13.6114 16.3261 13.8203C16.4629 13.9952 16.5622 14.1983 16.6171 14.4162C16.672 14.634 16.6814 14.8615 16.6446 15.0835C16.6079 15.3054 16.5258 15.5166 16.4038 15.7029C16.2819 15.8893 16.1229 16.0465 15.9376 16.1639C15.6674 16.3383 15.3551 16.43 15.0368 16.4284H8.33096ZM1.75181 14.7226H14.9226C14.7548 14.5086 14.5923 14.3038 14.4327 14.0968C13.8618 13.366 13.4547 12.5127 13.2411 11.5988C13.0396 10.7319 12.9744 9.84881 12.9501 8.96134C12.9379 8.52834 12.9501 8.09502 12.9196 7.66234C12.8928 7.24341 12.8251 6.82838 12.7175 6.42361C12.5397 5.77032 12.2419 5.18646 11.7709 4.70739C11.3751 4.30468 10.9057 4.01686 10.3951 3.80035C10.1307 3.69154 9.89257 3.52379 9.69763 3.30897C9.54145 3.13507 9.39318 2.95834 9.35847 2.70933C9.35143 2.67341 9.34124 2.63823 9.32803 2.60423C9.22695 2.29242 9.06681 2.02416 8.79402 1.84269C8.64393 1.74265 8.48044 1.683 8.29929 1.69689C8.00763 1.7193 7.78691 1.87552 7.60576 2.10306C7.44227 2.3082 7.35763 2.55216 7.29157 2.80432C7.2618 2.93108 7.20336 3.04867 7.12108 3.14738C6.9037 3.40175 6.6711 3.63088 6.36178 3.76122C6.16963 3.84223 5.98191 3.9341 5.79946 4.03642C4.95797 4.50793 4.35668 5.19372 4.04127 6.13831C3.82176 6.79539 3.74596 7.47582 3.73682 8.16603C3.73043 8.62302 3.73073 9.08127 3.70638 9.53636C3.68149 10.0708 3.62414 10.6031 3.53467 11.1301C3.43799 11.7042 3.2707 12.2631 3.03689 12.793C2.76289 13.3974 2.38964 13.9314 1.97802 14.4398C1.90252 14.5313 1.83097 14.6235 1.75181 14.7226Z" fill="var(--fill-0, #71778A)"/>
<path d="M8.34314 17.8615C9.29566 17.8615 10.2484 17.8615 11.2013 17.8615C11.2701 17.8615 11.3337 17.8681 11.3773 17.9313C11.4254 18.0013 11.4196 18.072 11.38 18.1452C11.0736 18.7213 10.6196 19.1983 10.0681 19.5238C9.43856 19.8971 8.71218 20.0573 7.99052 19.9818C7.26886 19.9063 6.58798 19.599 6.04303 19.1028C5.74731 18.8337 5.49822 18.5141 5.30657 18.1579C5.21736 17.9938 5.28952 17.8615 5.47006 17.8615H8.34314Z" fill="var(--fill-0, #71778A)"/>
</g>
</svg>
