<svg preserveAspectRatio="none" width="100%" height="100%" overflow="visible" style="display: block;" viewBox="0 0 20 18.2883" fill="none" xmlns="http://www.w3.org/2000/svg">
<g id="Union">
<mask id="path-1-inside-1_0_92" fill="white">
<path d="M12.5 0C15.6247 0 17.187 0.000189818 18.2822 0.795898C18.636 1.0529 18.9471 1.36405 19.2041 1.71777C19.9998 2.81304 20 4.37529 20 7.5C20 10.6247 19.9998 12.187 19.2041 13.2822C18.9471 13.636 18.636 13.9471 18.2822 14.2041C17.765 14.5798 17.1436 14.7762 16.3027 14.8809C16.2963 14.9095 16.287 14.9374 16.2695 14.9609C15.7945 15.6014 15.8062 16.5716 16.0645 17.4541C16.1975 17.9086 15.7611 18.4338 15.3242 18.251C13.8548 17.6358 11.6601 16.4863 11.3018 15H7.5C4.37529 15 2.81304 14.9998 1.71777 14.2041C1.36405 13.9471 1.0529 13.636 0.795898 13.2822C0.000189818 12.187 0 10.6247 0 7.5C0 4.37529 0.000189818 2.81304 0.795898 1.71777C1.0529 1.36405 1.36405 1.0529 1.71777 0.795898C2.81304 0.000189818 4.37529 0 7.5 0H12.5Z"/>
</mask>
<path d="M18.2822 0.795898L19.2227 -0.498529L19.2226 -0.498558L18.2822 0.795898ZM19.2041 1.71777L20.4986 0.777357L20.4985 0.777317L19.2041 1.71777ZM19.2041 13.2822L20.4985 14.2227L20.4986 14.2226L19.2041 13.2822ZM18.2822 14.2041L19.2226 15.4986L19.2227 15.4985L18.2822 14.2041ZM16.3027 14.8809L16.1051 13.2931C15.4342 13.3766 14.8882 13.8728 14.7411 14.5327L16.3027 14.8809ZM16.2695 14.9609L14.9845 14.0077L14.9844 14.0078L16.2695 14.9609ZM16.0645 17.4541L14.5289 17.9035L14.5289 17.9037L16.0645 17.4541ZM15.3242 18.251L14.7063 19.7268L14.7065 19.7269L15.3242 18.251ZM11.3018 15L12.8572 14.625C12.6839 13.9064 12.0409 13.4 11.3018 13.4V15ZM1.71777 14.2041L0.777317 15.4985L0.777357 15.4986L1.71777 14.2041ZM0.795898 13.2822L-0.498558 14.2226L-0.498529 14.2227L0.795898 13.2822ZM0.795898 1.71777L-0.498529 0.777317L-0.498558 0.777357L0.795898 1.71777ZM1.71777 0.795898L0.777357 -0.498558L0.777317 -0.498529L1.71777 0.795898ZM12.5 0V1.6C14.0979 1.6 15.1679 1.60224 15.9797 1.69024C16.7616 1.77499 17.1123 1.92362 17.3418 2.09035L18.2822 0.795898L19.2226 -0.498558C18.3569 -1.12754 17.3788 -1.37685 16.3246 -1.49112C15.3003 -1.60215 14.0268 -1.6 12.5 -1.6V0ZM18.2822 0.795898L17.3418 2.09033C17.5597 2.24864 17.7514 2.44033 17.9097 2.65823L19.2041 1.71777L20.4985 0.777317C20.1428 0.287758 19.7122 -0.142843 19.2227 -0.498529L18.2822 0.795898ZM19.2041 1.71777L17.9096 2.65819C18.0764 2.88769 18.225 3.23838 18.3098 4.02027C18.3978 4.8321 18.4 5.90206 18.4 7.5H20H21.6C21.6 5.97324 21.6021 4.69971 21.4911 3.67543C21.3769 2.6212 21.1275 1.64313 20.4986 0.777357L19.2041 1.71777ZM20 7.5H18.4C18.4 9.09794 18.3978 10.1679 18.3098 10.9797C18.225 11.7616 18.0764 12.1123 17.9096 12.3418L19.2041 13.2822L20.4986 14.2226C21.1275 13.3569 21.3769 12.3788 21.4911 11.3246C21.6021 10.3003 21.6 9.02676 21.6 7.5H20ZM19.2041 13.2822L17.9097 12.3418C17.7514 12.5597 17.5597 12.7514 17.3418 12.9097L18.2822 14.2041L19.2227 15.4985C19.7122 15.1428 20.1428 14.7122 20.4985 14.2227L19.2041 13.2822ZM18.2822 14.2041L17.3418 12.9096C17.127 13.0657 16.8031 13.2062 16.1051 13.2931L16.3027 14.8809L16.5004 16.4686C17.484 16.3462 18.4031 16.094 19.2226 15.4986L18.2822 14.2041ZM16.3027 14.8809L14.7411 14.5327C14.755 14.4703 14.8078 14.2459 14.9845 14.0077L16.2695 14.9609L17.5546 15.9142C17.7662 15.6289 17.8377 15.3487 17.8644 15.229L16.3027 14.8809ZM16.2695 14.9609L14.9844 14.0078C14.0605 15.2535 14.2204 16.8495 14.5289 17.9035L16.0645 17.4541L17.6 17.0047C17.5105 16.6988 17.4775 16.4203 17.4895 16.206C17.5016 15.9896 17.5534 15.9157 17.5546 15.9141L16.2695 14.9609ZM16.0645 17.4541L14.5289 17.9037C14.4165 17.5197 14.5537 17.2066 14.7129 17.0278C14.8867 16.8325 15.3629 16.5327 15.9419 16.775L15.3242 18.251L14.7065 19.7269C15.7223 20.152 16.6352 19.6811 17.1032 19.1553C17.5565 18.646 17.8455 17.843 17.6 17.0045L16.0645 17.4541ZM15.3242 18.251L15.9421 16.7751C15.2569 16.4882 14.4615 16.0997 13.8207 15.6462C13.1214 15.1512 12.8949 14.7814 12.8572 14.625L11.3018 15L9.74634 15.375C10.067 16.7049 11.1171 17.653 11.972 18.2581C12.8855 18.9047 13.9221 19.3985 14.7063 19.7268L15.3242 18.251ZM11.3018 15V13.4H7.5V15V16.6H11.3018V15ZM7.5 15V13.4C5.90206 13.4 4.8321 13.3978 4.02027 13.3098C3.23838 13.225 2.88769 13.0764 2.65819 12.9096L1.71777 14.2041L0.777357 15.4986C1.64313 16.1275 2.6212 16.3769 3.67543 16.4911C4.69971 16.6021 5.97324 16.6 7.5 16.6V15ZM1.71777 14.2041L2.65823 12.9097C2.44033 12.7514 2.24864 12.5597 2.09033 12.3418L0.795898 13.2822L-0.498529 14.2227C-0.142843 14.7122 0.287758 15.1428 0.777317 15.4985L1.71777 14.2041ZM0.795898 13.2822L2.09035 12.3418C1.92362 12.1123 1.77499 11.7616 1.69024 10.9797C1.60224 10.1679 1.6 9.09794 1.6 7.5H0H-1.6C-1.6 9.02676 -1.60215 10.3003 -1.49112 11.3246C-1.37685 12.3788 -1.12754 13.3569 -0.498558 14.2226L0.795898 13.2822ZM0 7.5H1.6C1.6 5.90206 1.60224 4.8321 1.69024 4.02027C1.77499 3.23838 1.92362 2.88769 2.09035 2.65819L0.795898 1.71777L-0.498558 0.777357C-1.12754 1.64313 -1.37685 2.6212 -1.49112 3.67543C-1.60215 4.69971 -1.6 5.97324 -1.6 7.5H0ZM0.795898 1.71777L2.09033 2.65823C2.24864 2.44033 2.44033 2.24864 2.65823 2.09033L1.71777 0.795898L0.777317 -0.498529C0.287758 -0.142843 -0.142843 0.287758 -0.498529 0.777317L0.795898 1.71777ZM1.71777 0.795898L2.65819 2.09035C2.88769 1.92362 3.23838 1.77499 4.02027 1.69024C4.8321 1.60224 5.90206 1.6 7.5 1.6V0V-1.6C5.97324 -1.6 4.69971 -1.60215 3.67543 -1.49112C2.6212 -1.37685 1.64313 -1.12754 0.777357 -0.498558L1.71777 0.795898ZM7.5 0V1.6H12.5V0V-1.6H7.5V0Z" fill="var(--stroke-0, #71778A)" mask="url(#path-1-inside-1_0_92)"/>
</g>
</svg>
