<svg width="36" height="36" viewBox="0 0 36 36" fill="none" xmlns="http://www.w3.org/2000/svg">
  <path d="M0 12C0 5.37258 5.37258 0 12 0H24C30.6274 0 36 5.37258 36 12V24C36 30.6274 30.6274 36 24 36H12C5.37258 36 0 30.6274 0 24V12Z" fill="#141414"/>
  <g transform="translate(6, 10.54)">
    <path d="M8.76335 1.59456H15.2579V13.3228H8.76335V1.59456Z" fill="#FF5F00"/>
    <path d="M9.17488 7.45965C9.17488 5.07674 10.2882 2.96313 11.9994 1.5955C10.7418 0.600895 9.15432 0 7.42244 0C3.31939 0 0 3.33607 0 7.45965C0 11.5832 3.31939 14.9193 7.42235 14.9193C9.15422 14.9193 10.7417 14.3184 11.9994 13.3237C10.2882 11.9768 9.17488 9.84256 9.17488 7.45965Z" fill="#EB001B"/>
    <path d="M23.9999 7.45965C23.9999 11.5831 20.6805 14.9193 16.5776 14.9193C14.8457 14.9193 13.2582 14.3184 12.0005 13.3237C13.7324 11.9562 14.8251 9.84256 14.8251 7.45965C14.8251 5.07674 13.7117 2.96313 12.0005 1.5955C13.2581 0.600895 14.8457 0 16.5776 0C20.6805 0 23.9999 3.35684 23.9999 7.45965Z" fill="#F79E1B"/>
  </g>
</svg>
