<svg preserveAspectRatio="none" width="100%" height="100%" overflow="visible" style="display: block;" viewBox="0 0 36 36" fill="none" xmlns="http://www.w3.org/2000/svg">
<path id="Union" fill-rule="evenodd" clip-rule="evenodd" d="M0 5.43151C0 6.71249 0.443448 7.8899 1.18521 8.8186C1.7585 9.53639 2.02755 10.5214 1.67545 11.3699C0.814618 13.4443 0.339469 15.7192 0.339469 18.105C0.339469 20.4453 0.796617 22.6787 1.62648 24.7209C1.96508 25.5542 1.70661 26.5149 1.15218 27.2232C0.430306 28.1453 0 29.3066 0 30.5685C0 33.5682 2.43177 36 5.4315 36C6.68882 36 7.84636 35.5728 8.76687 34.8556C9.47638 34.3028 10.4377 34.0466 11.2702 34.3871C13.3227 35.2267 15.5693 35.6896 17.924 35.6896C20.3116 35.6896 22.5881 35.2137 24.6638 34.3517C25.5072 34.0014 26.4861 34.2652 27.2026 34.8316C28.128 35.5633 29.2972 36 30.5685 36C33.5682 36 36 33.5682 36 30.5685C36 29.2691 35.5437 28.0763 34.7826 27.1415C34.206 26.4333 33.9281 25.4584 34.2661 24.61C35.0677 22.5979 35.5085 20.403 35.5085 18.105C35.5085 15.7609 35.0498 13.5239 34.2173 11.4788C33.8657 10.6151 34.1545 9.61573 34.75 8.89817C35.5307 7.95759 36 6.74936 36 5.43151C36 2.43177 33.5682 0 30.5685 0C29.2462 0 28.0342 0.472533 27.0923 1.25795C26.3761 1.85513 25.3773 2.14619 24.5129 1.79658C22.4779 0.973648 20.2539 0.52052 17.924 0.52052C15.6276 0.52052 13.4341 0.960691 11.4231 1.76126C10.5697 2.10101 9.58875 1.81788 8.8793 1.23441C7.94146 0.463101 6.74056 0 5.4315 0C2.43177 0 0 2.43177 0 5.43151Z" fill="var(--fill-0, #171717)"/>
</svg>
