<svg width="36" height="36" viewBox="0 0 36 36" fill="none" xmlns="http://www.w3.org/2000/svg">
  <path d="M0 12C0 5.37258 5.37258 0 12 0H24C30.6274 0 36 5.37258 36 12V24C36 30.6274 30.6274 36 24 36H12C5.37258 36 0 30.6274 0 24V12Z" fill="#141414"/>
  <g transform="translate(5.72, 6)">
    <path fill-rule="evenodd" clip-rule="evenodd" d="M0 3.621C0 4.47499 0.281712 5.25993 0.752933 5.87907C1.11714 6.35759 1.28805 7.01428 1.06437 7.57993C0.517508 8.96288 0.215657 10.4795 0.215657 12.07C0.215657 13.6302 0.506072 15.1191 1.03327 16.4806C1.24837 17.0361 1.08417 17.6766 0.731955 18.1488C0.273363 18.7635 0 19.5378 0 20.379C0 22.3788 1.54484 24 3.45051 24C4.24925 24 4.98461 23.7152 5.56939 23.2371C6.02012 22.8685 6.63085 22.6977 7.1597 22.9247C8.4636 23.4845 9.89081 23.793 11.3867 23.793C12.9035 23.793 14.3497 23.4758 15.6683 22.9011C16.2041 22.6676 16.826 22.8435 17.2812 23.2211C17.8691 23.7088 18.6119 24 19.4194 24C21.3251 24 22.87 22.3788 22.87 20.379C22.87 19.5127 22.5801 18.7175 22.0966 18.0943C21.7303 17.6222 21.5537 16.9723 21.7685 16.4067C22.2777 15.0653 22.5577 13.602 22.5577 12.07C22.5577 10.5073 22.2663 9.01591 21.7374 7.65255C21.5141 7.07676 21.6975 6.41048 22.0759 5.93211C22.5718 5.30506 22.87 4.49957 22.87 3.621C22.87 1.62118 21.3251 0 19.4194 0C18.5794 0 17.8095 0.315022 17.2111 0.838633C16.7561 1.23675 16.1216 1.43079 15.5724 1.19772C14.2797 0.649099 12.8668 0.347014 11.3867 0.347014C9.92787 0.347014 8.53436 0.640461 7.25685 1.17417C6.71469 1.40067 6.09151 1.21192 5.64081 0.82294C5.04502 0.308734 4.28212 0 3.45051 0C1.54484 0 0 1.62118 0 3.621Z" fill="white"/>
  </g>
  <g transform="translate(9.43, 14.5)">
    <path d="M3.84733 0.146853C4.54323 0.146853 5.09664 0.381818 5.50755 0.851748C5.91846 1.31515 6.0709 1.91235 5.96486 2.64336C5.86544 3.3352 5.55726 3.89324 5.0403 4.31748C4.52998 4.7352 3.87053 4.94406 3.06196 4.94406H2.14735L1.77952 7H0L1.2228 0.146853H3.84733ZM4.19528 2.54545C4.24168 2.32354 4.20522 2.14732 4.08593 2.01678C3.96663 1.88625 3.78768 1.82098 3.54909 1.82098H2.70407L2.44559 3.27972H3.3105C3.54246 3.27972 3.73798 3.21445 3.89704 3.08392C4.0561 2.94685 4.15552 2.76737 4.19528 2.54545Z" fill="#141414"/>
    <path d="M5.45815 7L5.67687 5.72727L8.44058 3.32867C8.95091 2.89137 9.22927 2.53566 9.27566 2.26154C9.3088 2.09837 9.28229 1.96457 9.19613 1.86014C9.10997 1.75571 8.98073 1.7035 8.80842 1.7035C8.41739 1.7035 8.06612 1.95152 7.75462 2.44755L6.31312 1.57622C6.63124 1.05408 7.0289 0.662471 7.50609 0.401399C7.98328 0.1338 8.4936 0 9.03707 0C9.67995 0 10.2068 0.218648 10.6178 0.655944C11.0353 1.08671 11.1844 1.63823 11.0651 2.31049C10.9922 2.70862 10.8497 3.05781 10.6376 3.35804C10.4322 3.65827 10.124 3.98462 9.71309 4.33706L8.55988 5.30629H10.6277L10.3295 7H5.45815Z" fill="#141414"/>
    <path d="M15.0023 0.146853C15.6982 0.146853 16.2516 0.381818 16.6625 0.851748C17.0734 1.31515 17.2259 1.91235 17.1198 2.64336C17.0204 3.3352 16.7122 3.89324 16.1953 4.31748C15.685 4.7352 15.0255 4.94406 14.2169 4.94406H13.3023L12.9345 7H11.155L12.3778 0.146853H15.0023ZM15.3503 2.54545C15.3967 2.32354 15.3602 2.14732 15.2409 2.01678C15.1216 1.88625 14.9427 1.82098 14.7041 1.82098H13.8591L13.6006 3.27972H14.4655C14.6974 3.27972 14.893 3.21445 15.052 3.08392C15.2111 2.94685 15.3105 2.76737 15.3503 2.54545Z" fill="#141414"/>
  </g>
</svg>
