<svg width="36" height="36" viewBox="0 0 36 36" fill="none" xmlns="http://www.w3.org/2000/svg">
  <path d="M0 12C0 5.37258 5.37258 0 12 0H24C30.6274 0 36 5.37258 36 12V24C36 30.6274 30.6274 36 24 36H12C5.37258 36 0 30.6274 0 24V12Z" fill="#002987"/>
  <g transform="translate(8.8, 7)">
    <path d="M16.6153 5.68391C16.6525 5.38119 16.672 5.07298 16.672 4.76021C16.672 2.13125 14.5408 0 11.9118 0H3.95646C3.45605 0 3.02881 0.361367 2.94579 0.85482L0.0144633 18.2776C-0.0907242 18.9028 0.391213 19.4725 1.02513 19.4725H3.93459C4.435 19.4725 4.87028 19.1114 4.95325 18.6179L5.56277 14.9488C5.68743 14.2079 6.3288 13.6655 7.08 13.6655H7.7975C11.4296 13.6655 14.374 10.721 14.374 7.08892C14.374 6.08346 13.6793 5.4411 12.6153 4.68391" fill="#B2BFDB"/>
    <path d="M12.0665 0C11.6113 3.703 8.45524 6.57035 4.62922 6.57035H2.40924C1.90818 6.57035 1.47544 6.90409 1.3397 7.37597L0.0127415 15.2628C-0.0799421 15.8139 0.344803 16.3161 0.903526 16.3161H3.44887C3.88994 16.3161 4.26652 15.9976 4.33965 15.5626L5.06277 11.2649C5.18743 10.524 5.82882 9.98155 6.58004 9.98155H7.24872C10.8809 9.98155 13.8253 7.03712 13.8253 3.40502C13.8253 1.99955 13.1305 0.757195 12.0665 0Z" transform="translate(2.5, 2)" fill="white"/>
  </g>
</svg>
