<svg preserveAspectRatio="none" width="100%" height="100%" overflow="visible" style="display: block;" viewBox="0 0 12.25 12.25" fill="none" xmlns="http://www.w3.org/2000/svg">
<path id="Subtract (Stroke)" fill-rule="evenodd" clip-rule="evenodd" d="M1.79397 1.79397C4.18593 -0.59799 8.06407 -0.59799 10.456 1.79397C12.848 4.18593 12.848 8.06407 10.456 10.456C8.06407 12.848 4.18593 12.848 1.79397 10.456C-0.59799 8.06407 -0.59799 4.18593 1.79397 1.79397ZM3.21746 2.28938L9.96062 9.03254C11.3942 7.14634 11.2499 4.44404 9.52795 2.72205C7.80596 1.00005 5.10366 0.855834 3.21746 2.28938ZM9.03254 9.96062L2.28938 3.21746C0.855834 5.10366 1.00005 7.80596 2.72205 9.52795C4.44404 11.2499 7.14634 11.3942 9.03254 9.96062Z" fill="var(--fill-0, #FF463B)"/>
</svg>
