<svg preserveAspectRatio="none" width="100%" height="100%" overflow="visible" style="display: block;" viewBox="0 0 12.25 12.25" fill="none" xmlns="http://www.w3.org/2000/svg">
<path id="Vector (Stroke)" d="M10.8889 6.125C10.8889 3.49398 8.75602 1.36111 6.125 1.36111C3.49398 1.36111 1.36111 3.49398 1.36111 6.125C1.36111 8.75602 3.49398 10.8889 6.125 10.8889C8.75602 10.8889 10.8889 8.75602 10.8889 6.125ZM5.44444 3.40278C5.44444 3.02692 5.74914 2.72222 6.125 2.72222C6.50086 2.72222 6.80556 3.02692 6.80556 3.40278V5.44444H8.84722C9.22308 5.44444 9.52778 5.74914 9.52778 6.125C9.52778 6.50086 9.22308 6.80556 8.84722 6.80556H6.125C5.74914 6.80556 5.44444 6.50086 5.44444 6.125V3.40278ZM12.25 6.125C12.25 9.50774 9.50774 12.25 6.125 12.25C2.74226 12.25 0 9.50774 0 6.125C0 2.74226 2.74226 0 6.125 0C9.50774 0 12.25 2.74226 12.25 6.125Z" fill="var(--fill-0, #FF8411)"/>
</svg>
