<svg preserveAspectRatio="none" width="100%" height="100%" overflow="visible" style="display: block;" viewBox="0 0 26 9" fill="none" xmlns="http://www.w3.org/2000/svg">
<path id="Vector" d="M24.2957 0.15271L26 8.84746H24.0474C23.9694 8.4835 23.9083 8.10287 23.8303 7.73891C23.7523 7.37495 23.8303 7.55693 23.6288 7.55693H21.2589C21.2334 7.5522 21.2072 7.55323 21.1821 7.55994C21.1569 7.56665 21.1334 7.5789 21.113 7.59591C21.0925 7.61291 21.0756 7.63429 21.0634 7.65868C21.0511 7.68306 21.0438 7.70992 21.0418 7.73752C20.9326 8.07092 20.8247 8.40154 20.7012 8.71549C20.5764 9.02944 20.592 8.86413 20.5452 8.86413H18.4548V8.66548C19.4879 6.04923 20.5205 3.42788 21.5527 0.801448C21.6136 0.623032 21.7227 0.467969 21.8662 0.35593C22.0097 0.243892 22.1811 0.179929 22.3587 0.172159C23.0399 0.138819 23.66 0.155489 24.2957 0.155489M22.8397 2.59068L21.7386 5.7538H23.4741L22.8397 2.59068ZM5.3456 6.06497V5.86632C5.9657 4.02846 6.6001 2.19061 7.2046 0.352749C7.2046 0.204109 7.3294 0.13743 7.4841 0.13743H9.5446V0.352749L6.3375 8.63214C6.32226 8.70077 6.28351 8.76082 6.22888 8.80042C6.17425 8.84002 6.10771 8.85631 6.0424 8.84607H4.2458C4.0898 8.84607 4.0287 8.84607 3.9819 8.63075C3.4099 6.24695 2.8197 3.86315 2.2464 1.46269C2.21847 1.33875 2.14611 1.2315 2.0449 1.16402C1.44701 0.807441 0.813364 0.524112 0.156 0.319409C0.156 0.319409 0.0468 0.23606 0 0.204109C0.066007 0.185247 0.135493 0.185247 0.2015 0.204109H3.3007C3.43015 0.183072 3.56229 0.191496 3.68848 0.22883C3.81466 0.266163 3.93205 0.331564 4.03293 0.420748C4.13382 0.509931 4.21594 0.620884 4.2739 0.74634C4.33187 0.871795 4.36438 1.00892 4.3693 1.14874L5.2533 5.99829C5.24818 6.03699 5.24818 6.07628 5.2533 6.11498L5.3456 6.06497ZM12.5658 8.51545L12.8765 6.57757L13.0936 6.71093C13.8849 7.14786 14.7923 7.28218 15.665 7.09156C15.8318 7.0763 15.9901 7.0059 16.1177 6.89014C16.2454 6.77438 16.3362 6.619 16.3774 6.4456C16.3941 6.27255 16.3578 6.0984 16.2742 5.94916C16.1905 5.79993 16.0639 5.68363 15.9133 5.61766C15.6026 5.40234 15.2633 5.23703 14.9682 5.02171C14.586 4.79417 14.2322 4.51599 13.9152 4.19377C13.5936 3.7827 13.4175 3.26397 13.4175 2.72821C13.4175 2.19245 13.5936 1.67372 13.9152 1.26265C14.3818 0.718114 14.9919 0.337433 15.665 0.17077C16.6905 -0.103802 17.7693 -0.04626 18.7642 0.336079H18.8422L18.5471 2.12393C18.156 1.99629 17.7573 1.89697 17.3537 1.82665C16.9513 1.79322 16.5471 1.79322 16.1447 1.82665C15.9995 1.85779 15.8656 1.93248 15.7586 2.04197C15.707 2.08891 15.6656 2.14726 15.6372 2.21298C15.6089 2.27869 15.5942 2.35021 15.5942 2.4226C15.5942 2.49498 15.6089 2.5665 15.6372 2.63221C15.6656 2.69793 15.707 2.75628 15.7586 2.80323C15.9441 2.98567 16.1451 3.14588 16.3618 3.28387C16.7648 3.54781 17.1834 3.76313 17.5708 4.04513C17.8913 4.25449 18.157 4.54696 18.3435 4.89541C18.5299 5.24386 18.6309 5.63699 18.6371 6.0383C18.6433 6.43962 18.5546 6.8361 18.3791 7.19096C18.2036 7.54582 17.947 7.84755 17.6332 8.06814C17.0155 8.57957 16.2731 8.89015 15.4947 8.96276C14.4987 9.07816 13.4916 8.92435 12.5658 8.51545ZM9.126 8.84607L10.4585 0.1541H12.5814L11.2489 8.84607H9.126Z" fill="var(--fill-0, white)"/>
</svg>
